<svg xmlns="http://www.w3.org/2000/svg" viewBox="0 0 1024 1024">
  <defs>
    <linearGradient id="bg" x1="188" y1="112" x2="844" y2="906" gradientUnits="userSpaceOnUse">
      <stop offset="0" stop-color="#1D75FF"/>
      <stop offset=".58" stop-color="#147EEB"/>
      <stop offset="1" stop-color="#0891B2"/>
    </linearGradient>
    <filter id="markShadow" x="76" y="152" width="872" height="700" filterUnits="userSpaceOnUse" color-interpolation-filters="sRGB">
      <feDropShadow dx="0" dy="30" stdDeviation="30" flood-color="#063D73" flood-opacity=".24"/>
    </filter>
  </defs>
  <rect width="1024" height="1024" rx="224" fill="url(#bg)"/>
  <path
    d="M282 714c-78 0-142-60-142-134 0-70 56-128 128-133 34-104 132-180 252-180 128 0 236 90 262 210 64 20 110 78 110 148 0 36-12 63-36 80-24 17-57 26-100 26H282v-17Z"
    fill="#F8FCFF"
    filter="url(#markShadow)"
  />
  <path
    d="M492 224c20-28 64-14 64 20v432c0 31-38 47-60 25L392 596l-118 64c-25 14-52-13-39-39l257-397Z"
    fill="#F8FCFF"
    filter="url(#markShadow)"
  />
</svg>
